<?xml version="1.0" encoding="UTF-8" standalone="no"?>
<!-- Created with Inkscape (http://www.inkscape.org/) -->

<svg
   width="264.80392mm"
   height="264.80399mm"
   viewBox="0 0 264.80392 264.80399"
   version="1.1"
   id="svg1"
   xml:space="preserve"
   inkscape:version="1.4.3 (0d15f75042, 2025-12-25)"
   sodipodi:docname="icon.svg"
   xmlns:inkscape="http://www.inkscape.org/namespaces/inkscape"
   xmlns:sodipodi="http://sodipodi.sourceforge.net/DTD/sodipodi-0.dtd"
   xmlns="http://www.w3.org/2000/svg"
   xmlns:svg="http://www.w3.org/2000/svg"><sodipodi:namedview
     id="namedview1"
     pagecolor="#ffffff"
     bordercolor="#000000"
     borderopacity="0.25"
     inkscape:showpageshadow="2"
     inkscape:pageopacity="0.0"
     inkscape:pagecheckerboard="0"
     inkscape:deskcolor="#d1d1d1"
     inkscape:document-units="mm"
     inkscape:zoom="0.73638604"
     inkscape:cx="374.12442"
     inkscape:cy="564.24209"
     inkscape:window-width="2560"
     inkscape:window-height="1378"
     inkscape:window-x="0"
     inkscape:window-y="0"
     inkscape:window-maximized="1"
     inkscape:current-layer="layer1" /><defs
     id="defs1" /><g
     inkscape:label="Layer 1"
     inkscape:groupmode="layer"
     id="layer1"
     transform="translate(25.869583,-18.231258)"><rect
       style="fill:#000000;fill-opacity:1;stroke:none;stroke-width:5.53055;stroke-linecap:round;stroke-linejoin:round;stroke-dasharray:none;stroke-opacity:1"
       id="rect21"
       width="264.80392"
       height="264.80399"
       x="-25.869583"
       y="18.231258"
       inkscape:export-filename="ymir_icon_32.png"
       inkscape:export-xdpi="3.0694411"
       inkscape:export-ydpi="3.0694411" /><path
       id="rect14"
       style="fill:#ffffff;fill-opacity:1;stroke:none;stroke-width:3.8143;stroke-linecap:round;stroke-linejoin:round;stroke-dasharray:none;stroke-opacity:1"
       d="m 126.8472,65.224526 c -21.37815,1.620673 -39.706536,7.897778 -57.776679,19.787311 -11.774972,7.747527 -21.96482,17.435933 -31.46308,29.914293 -5.797426,7.61638 -12.795322,19.53847 -17.104161,29.14065 -5.10802,11.38313 -9.256367,22.53975 -13.0865786,35.19583 -1.8615567,6.1511 -4.4562575,16.23416 -5.0790141,19.73656 -0.5993187,3.37059 -0.2237682,4.78028 0.741131,2.7812 0.4964299,-1.02849 0.5391954,-1.14677 3.8781256,-10.78581 9.6336571,-27.81108 16.5002851,-43.7071 25.2147151,-58.369 12.810162,-21.55292 27.457946,-36.388741 46.990858,-47.594505 11.758861,-6.745898 26.074193,-11.99301 38.854183,-14.24164 12.1967,-2.145999 22.83139,-2.795178 37.51483,-2.289425 5.14924,0.177357 9.65716,0.24876 10.01808,0.15818 1.07027,-0.26862 0.78172,-0.855531 -0.62681,-1.273819 -2.35867,-0.700447 -10.04471,-1.663056 -17.24657,-2.159825 -4.83572,-0.333558 -16.43108,-0.333409 -20.82903,0 z m 70.57252,5.363837 c -2.60796,0.06237 -5.89478,1.328535 -10.62173,4.058974 -8.45506,4.8839 -13.24438,6.103949 -26.89951,6.852012 -14.56413,0.797858 -23.13804,1.818471 -35.06968,4.174775 -19.4543,3.841908 -33.345507,9.186158 -46.809023,18.008896 -9.472477,6.20737 -22.590206,19.1375 -32.139166,31.6794 -8.203109,10.77423 -15.980686,25.27618 -22.394573,41.75564 -0.756112,1.94272 -1.583907,4.0431 -1.839524,4.66755 -0.255618,0.62443 -0.883345,2.2707 -1.394548,3.65835 -3.371917,9.15299 -5.93209,15.57814 -7.138313,17.91329 -0.501754,0.97135 -1.972846,3.37833 -3.269058,5.34906 -3.0094968,4.57559 -4.4734245,7.4551 -5.0055906,9.84709 -1.2263664,5.51228 1.3710501,10.32403 6.4548366,11.95763 1.739945,0.55912 4.93377,0.60223 6.948595,0.0936 v -5e-4 c 0.827053,-0.20877 2.4685,-0.87255 3.648002,-1.47536 1.179502,-0.60281 4.131411,-2.11517 6.559797,-3.36072 6.374214,-3.26943 11.169447,-4.69155 18.129129,-5.37615 1.437043,-0.14136 8.822675,-0.25674 16.412306,-0.25674 16.969855,0 22.804692,-0.40496 32.834962,-2.27907 22.769858,-4.25446 41.031368,-13.69375 56.175658,-29.03716 10.00445,-10.136 20.83939,-26.02872 29.22046,-42.85994 5.51634,-11.07812 8.63328,-19.285 11.72949,-30.88506 3.14301,-11.77538 5.07627,-16.756759 9.84857,-25.377821 3.59106,-6.487181 4.24163,-10.466367 2.34658,-14.353007 -1.26428,-2.592982 -3.79308,-4.383769 -6.64898,-4.708448 -0.34707,-0.03946 -0.70612,-0.05519 -1.07869,-0.04632 z m -0.033,5.346097 c 0.99496,-0.02107 1.71828,0.276434 2.38403,0.942183 1.7456,1.745599 1.47291,4.497078 -0.89685,9.046825 -4.92857,9.462448 -5.60654,10.919445 -7.2886,15.666252 l -1.04075,2.93693 -0.70368,-2.44268 C 187.8077,95.0289 184.1883,89.605441 178.94419,85.754939 l -1.59757,-1.173294 2.31406,-0.818003 c 3.28656,-1.161677 4.20553,-1.59236 8.93645,-4.186601 4.85111,-2.660144 6.03769,-3.202134 7.69613,-3.516923 0.3999,-0.0759 0.76182,-0.118601 1.09347,-0.125658 z m -11.17463,8.728001 c -0.15847,-0.0041 -0.30748,0.02324 -0.45236,0.07884 -0.20915,0.08025 -0.37894,0.453983 -0.37894,0.834266 0,0.527232 0.43638,1.107003 1.85775,2.467808 1.02182,0.978286 2.46093,2.491324 3.1976,3.362192 0.73667,0.870868 1.46136,1.543557 1.61089,1.494582 0.14952,-0.04898 0.30827,-0.39413 0.35232,-0.766755 0.14924,-1.261706 -1.10284,-3.415611 -3.1296,-5.384041 -1.50416,-1.460871 -2.37098,-2.069082 -3.05766,-2.086895 z m -14.65162,1.32211 v 4.93e-4 c 1.26572,-0.03561 1.5422,0.307882 3.1163,1.335908 3.03765,1.983841 7.16741,6.143512 8.74524,8.808815 2.29013,3.868527 3.93947,8.842973 4.51282,13.610393 0.25761,2.14201 0.23273,2.45017 -0.39816,4.93365 -2.23312,8.79058 -6.29575,19.3772 -11.27908,29.39295 -1.51893,3.05283 -2.84576,5.63541 -2.94876,5.73883 -0.27104,0.27208 -1.82474,0.32492 -7.25855,0.24787 v 4.8e-4 l -4.82327,-0.0685 -0.13305,-1.82375 c -0.0732,-1.00311 -0.0983,-1.86147 -0.0552,-1.90753 0.0431,-0.0461 1.32673,-0.23779 2.85265,-0.42625 4.77425,-0.58965 9.26544,-1.47813 9.75544,-1.9297 0.16255,-0.1498 0.11835,-0.31404 -0.12615,-0.46862 -0.45304,-0.2867 -7.29562,-0.29084 -10.46848,-0.007 -1.24889,0.11185 -2.2966,0.18194 -2.32835,0.15572 -0.0317,-0.0262 -0.0885,-0.31713 -0.12615,-0.64652 -0.0585,-0.51162 0.0786,-0.632 0.9407,-0.8249 3.84844,-0.8611 11.22735,-3.18862 11.22735,-3.54156 0,-0.33826 -2.73644,-0.0836 -7.569,0.70417 -2.15085,0.35065 -4.20252,0.69778 -4.55913,0.77169 -0.57171,0.11854 -0.68247,0.0232 -0.93775,-0.80864 -0.15921,-0.51886 -0.25647,-0.97645 -0.21633,-1.0166 0.0401,-0.0402 2.7895,-0.93534 6.1099,-1.98932 6.08382,-1.93115 11.75623,-3.91672 13.03829,-4.56407 1.07315,-0.54187 0.87527,-0.93534 -0.37007,-0.7362 -1.42617,0.22806 -10.2193,2.23394 -15.13504,3.45286 -2.17931,0.54039 -4.06996,0.98259 -4.20139,0.98259 -0.13144,0 -0.35167,-0.31222 -0.48982,-0.69382 -0.13814,-0.38161 -0.3255,-0.87547 -0.4159,-1.09741 -0.12687,-0.31146 0.77213,-1.00209 3.93972,-3.0276 3.74153,-2.39251 11.19172,-7.32117 14.96947,-9.90327 1.8949,-1.29515 4.41525,-3.41891 4.41525,-3.72044 0,-0.12503 -0.13353,-0.22765 -0.29665,-0.22765 -0.16314,0 -3.20019,1.66705 -6.74902,3.70466 -3.54883,2.03761 -8.94869,5.1027 -12.00001,6.81112 l -5.54814,3.10644 -0.83919,-1.66557 c -0.46175,-0.91593 -0.78513,-1.80735 -0.71847,-1.98096 0.0667,-0.1736 1.06755,-0.97643 2.22438,-1.78432 3.79954,-2.6535 10.6666,-7.86339 11.42248,-8.66592 1.74892,-1.85688 -0.65121,-0.6955 -10.0092,4.84397 -2.73843,1.62102 -5.06591,2.94264 -5.17215,2.93692 -0.22171,-0.0123 -1.32852,-1.68236 -1.32852,-2.0046 0,-0.11774 1.39027,-1.61444 3.0892,-3.32573 12.7772,-12.87007 20.12239,-20.508518 20.12239,-20.925611 0,-0.262564 -0.0669,-0.477498 -0.14881,-0.477498 -0.48254,0 -12.45692,10.388079 -21.87914,18.980639 -1.63871,1.49442 -3.06855,2.71716 -3.17741,2.71716 -0.10885,0 -0.96422,-0.90779 -1.90062,-2.01742 l -1.70253,-2.01741 2.8778,-3.59627 c 1.58276,-1.97789 3.52369,-4.41376 4.31324,-5.4131 1.8768,-2.37551 4.71338,-6.388248 4.71338,-6.667722 0,-0.75832 -1.43078,0.518544 -7.3921,6.597252 l -6.68545,6.81702 -1.38469,-1.26544 -1.38469,-1.26544 0.83524,-1.57786 c 1.01761,-1.92226 5.85493,-12.824088 6.66476,-15.020717 0.32144,-0.871799 0.50254,-1.666544 0.4026,-1.766099 -0.33758,-0.336294 -0.32245,-0.36097 -7.47636,11.911316 -1.36945,2.34925 -2.53396,4.39288 -2.58755,4.5414 -0.0563,0.15593 -0.35196,0.0439 -0.69974,-0.2656 -0.33126,-0.29472 -1.24397,-0.95683 -2.02874,-1.47094 l -1.42707,-0.93429 1.07375,-2.31407 c 1.23889,-2.66978 2.78555,-6.539114 3.01774,-7.549283 0.29724,-1.293206 -0.46677,-0.75105 -1.77793,1.261499 -0.70063,1.075429 -1.98797,3.170984 -2.86054,4.656704 l -1.58624,2.70139 -0.78647,-0.39915 c -1.41008,-0.71561 -1.40284,-0.68769 -0.74753,-2.92707 1.08634,-3.712356 1.88053,-7.050397 1.77742,-7.46946 -0.0555,-0.225453 -1.08237,1.60526 -2.28202,4.068337 -1.19967,2.463073 -2.22459,4.478323 -2.27761,4.478323 -0.43971,0 -1.92415,-0.82985 -1.92427,-1.07572 -9e-5,-0.1716 0.406,-2.412325 0.90227,-4.979478 0.49628,-2.567152 0.94739,-4.902993 1.00279,-5.190874 0.0907,-0.47113 0.52346,-0.590836 4.33296,-1.197932 9.37981,-1.494806 16.51273,-2.222318 26.43482,-2.695962 3.19159,-0.152355 6.76794,-0.38918 7.94745,-0.526282 1.96577,-0.228498 3.08124,-0.386154 3.84067,-0.407524 z m -44.04704,4.798134 c 0.11545,0.115456 -3.16731,9.589205 -3.2868,9.485395 -0.0156,-0.0136 -0.93686,-0.325828 -2.04698,-0.693831 l -2.01839,-0.669181 0.16212,-1.513801 c 0.0891,-0.83259 0.17416,-2.384498 0.18923,-3.448428 l 0.0271,-1.934135 1.19842,-0.252299 c 3.67658,-0.774234 5.64306,-1.105959 5.77531,-0.97372 z m -8.08936,1.501479 c 0.0844,0.08904 -1.53725,5.958273 -1.67198,6.051256 -0.0626,0.04315 -1.18264,-0.09955 -2.489,-0.317346 -1.91459,-0.31921 -2.41081,-0.491851 -2.55897,-0.889948 -0.15072,-0.404985 -0.21214,-0.424865 -0.34149,-0.110874 -0.13364,0.32444 -0.92417,0.382264 -5.17855,0.37845 -2.76153,-0.0025 -4.88834,-0.0782 -4.72619,-0.168529 1.21464,-0.676518 16.72645,-5.195819 16.96618,-4.943009 z m 88.81745,7.60053 c -0.46051,-0.0086 -1.03116,2.520086 -2.91623,11.705836 -1.55236,7.5645 -3.70422,16.48176 -5.34117,22.13193 -2.11044,7.28447 -6.23392,18.69146 -8.66394,23.96849 -0.31949,0.69382 -1.1657,2.52718 -1.88042,4.07424 -5.77437,12.4992 -14.30693,25.18298 -23.77828,35.34614 -1.71265,1.83775 -4.27757,4.58724 -5.69991,6.11039 -2.27414,2.43532 -3.02846,3.54879 -2.39685,3.53811 0.10408,-0.002 0.98397,-0.63842 1.95533,-1.41524 3.49148,-2.79225 7.45341,-6.45456 10.80947,-9.99197 15.57929,-16.42112 25.54893,-34.88443 32.80194,-60.74712 0.38077,-1.35773 2.22221,-9.48508 2.71519,-11.98424 1.57515,-7.98522 3.2224,-21.25723 2.76347,-22.26448 -0.13041,-0.28622 -0.24548,-0.469797 -0.3686,-0.472086 z M 106.99289,103.0838 c 2.26598,0 4.49496,0.15604 6.67707,0.45828 -23.325742,2.01857 -37.358567,23.7526 -39.214886,34.89082 -0.07604,0.25323 -0.333211,1.5759 -0.110381,1.66754 0.420335,-0.1349 0.656933,-0.93692 0.844613,-1.41278 5.336457,-21.79773 30.438794,-35.24496 51.965894,-29.86058 2.05923,0.51505 4.07964,1.18464 6.04091,1.99868 4.26548,2.77208 8.06318,6.20198 11.24952,10.1467 -17.82997,-13.82915 -42.1937,-8.4821 -51.174502,-2.06719 -0.232834,0.12529 -1.349819,0.87848 -1.257064,1.10086 0.392607,0.20184 1.126905,-0.19784 1.596093,-0.40161 19.186773,-11.63989 46.445813,-3.39851 57.860443,15.63077 0.79644,1.32776 1.52006,2.69925 2.16821,4.10579 0.95919,3.79225 1.46846,7.76449 1.46846,11.85711 0,1.27728 -0.0494,2.54279 -0.14684,3.79484 -3.34378,-21.75267 -23.86188,-34.80524 -34.57594,-36.59087 -0.25323,-0.0761 -1.5759,-0.33322 -1.66754,-0.11039 0.13489,0.42034 0.93692,0.65693 1.41279,0.84461 21.79774,5.33646 35.24494,30.4388 29.86057,51.9659 -0.33461,1.33776 -0.73462,2.65948 -1.19695,3.95895 -2.73249,4.78105 -6.26128,9.04677 -10.40687,12.61696 13.14507,-17.76049 7.85523,-41.59813 1.52563,-50.45949 -0.12529,-0.23283 -0.87899,-1.35034 -1.10135,-1.25756 -0.20186,0.3926 0.19833,1.1274 0.4021,1.59659 11.63989,19.18677 3.39854,46.44533 -15.63077,57.85996 -1.4866,0.89173 -3.02826,1.69243 -4.61236,2.39784 -3.82834,0.97894 -7.84115,1.49901 -11.97685,1.49901 -1.54696,0 -3.07686,-0.0725 -4.58624,-0.21485 22.60261,-2.64743 36.18452,-23.82335 38.00859,-34.76811 0.076,-0.25323 0.33321,-1.57591 0.11038,-1.66755 -0.42034,0.13489 -0.65693,0.93742 -0.84461,1.41328 -5.33645,21.79775 -30.4388,35.24495 -51.9659,29.86058 -2.390805,-0.59799 -4.72982,-1.40454 -6.984076,-2.40325 -4.601553,-2.99998 -8.656805,-6.76651 -11.985232,-11.11894 17.945241,15.54407 43.586828,10.06218 52.852888,3.4435 0.23283,-0.12529 1.35034,-0.87848 1.25755,-1.10085 -0.39261,-0.20185 -1.12737,0.19833 -1.59658,0.4021 -19.18676,11.63988 -46.445326,3.39802 -57.859955,-15.63126 -1.58702,-2.64572 -2.885057,-5.46459 -3.872212,-8.38947 -0.428046,-2.58303 -0.650953,-5.23617 -0.650953,-7.94153 0,-2.61832 0.208591,-5.1875 0.610053,-7.69171 1.11152,24.30773 23.602286,38.95638 34.999221,40.85584 0.253232,0.076 1.575902,0.3332 1.667541,0.11038 -0.134883,-0.42034 -0.937409,-0.65693 -1.41327,-0.84461 -21.797736,-5.33645 -35.244959,-30.4388 -29.860581,-51.9659 0.779873,-3.118 1.914623,-6.14726 3.367612,-9.01627 2.986573,-4.04781 6.592852,-7.61009 10.679382,-10.54683 -16.190239,17.96865 -10.660354,44.0784 -3.968303,53.44718 0.125286,0.23283 0.878478,1.34984 1.100856,1.25706 0.201837,-0.39261 -0.19833,-1.1269 -0.402103,-1.59609 -11.639885,-19.18677 -3.398027,-46.44582 15.63126,-57.86045 2.387142,-1.43192 4.915219,-2.62874 7.534993,-3.57409 2.654969,-0.45309 5.384519,-0.6889 8.169689,-0.6889 z m -43.159544,4.27333 c -0.602083,0 -6.792967,5.22826 -10.157535,8.5782 -11.515713,11.46566 -20.885759,25.56248 -29.012519,43.64789 -3.086403,6.86853 -7.826785,19.74716 -7.81292,21.22571 l 0.0054,0.59823 0.478482,-0.62287 c 0.263215,-0.34253 0.957701,-1.76171 1.543366,-3.15374 4.788325,-11.38106 10.101288,-22.53478 14.305208,-30.03158 7.775182,-13.8654 14.8424,-23.29802 26.234263,-35.01499 4.212318,-4.33254 4.968094,-5.22685 4.416234,-5.22685 z m -8.530891,24.7254 c 0.01634,0 -0.44655,1.44972 -1.028417,3.22175 -1.026776,3.12697 -2.107592,7.93167 -2.107592,9.36861 v 0.70712 l -2.456474,0.17247 c -1.351131,0.095 -2.561553,0.27804 -2.69005,0.40654 -0.30266,0.30266 0.765513,0.71461 2.875825,1.10924 l 1.639949,0.30649 0.07343,2.06769 0.07343,2.06718 -1.587222,-0.0552 c -0.872893,-0.0303 -3.091561,-0.0905 -4.930197,-0.13354 -1.838636,-0.0431 -3.342974,-0.15018 -3.342974,-0.23801 0,-0.49363 4.853861,-7.90896 7.399977,-11.3052 1.361147,-1.81562 6.006847,-7.69515 6.080329,-7.69515 z m 116.436405,19.74985 c 0.15834,-0.008 0.27004,0.053 0.27004,0.16361 0,0.66952 -7.54978,12.75604 -10.78237,17.26135 -1.70042,2.36989 -5.44477,7.32346 -6.00838,7.94892 -0.0437,0.0485 0.4689,-1.1436 1.1388,-2.64914 1.79824,-4.04143 2.75047,-7.05401 3.65637,-11.56785 l 0.81012,-4.03681 2.56242,-0.30157 c 1.40944,-0.16575 2.76262,-0.41322 3.0069,-0.54994 0.39566,-0.22143 0.36815,-0.27702 -0.24983,-0.51198 -0.38156,-0.14508 -1.46013,-0.39053 -2.39685,-0.54502 -0.93671,-0.1545 -1.9301,-0.3223 -2.20763,-0.37303 -0.45975,-0.084 -0.49694,-0.2555 -0.41836,-1.93216 0.0481,-1.02701 0.21536,-1.92251 0.37845,-2.02628 0.16073,-0.10229 1.14373,-0.18831 2.18446,-0.19022 2.0206,-0.005 7.1513,-0.43265 7.88437,-0.65833 0.0607,-0.0187 0.11876,-0.0287 0.17149,-0.0316 z m -130.65045,0.89241 c 0.0081,0 0.01591,9.6e-4 0.02316,0.003 1.065227,0.27153 5.756515,1.0408 7.93365,1.30092 l 2.556014,0.30552 0.176413,2.0253 c 0.09718,1.11404 0.231492,2.16753 0.298128,2.34117 0.08419,0.21942 -0.326083,0.37018 -1.344779,0.49375 -2.746305,0.33312 -10.064957,1.62258 -10.804054,1.90358 -1.580799,0.60102 -0.03375,0.77491 6.310455,0.70911 l 6.307498,-0.0655 0.08081,0.62385 c 0.04441,0.34304 0.242581,1.18241 0.44054,1.86514 0.197957,0.68274 0.331859,1.26916 0.297635,1.30339 -0.03422,0.0342 -1.481285,0.24456 -3.215838,0.46715 -8.924953,1.14533 -15.465842,2.68989 -14.687108,3.46863 0.173817,0.17381 2.237021,0.12473 6.399647,-0.15276 3.378677,-0.22522 7.27826,-0.47074 8.66591,-0.5455 1.38765,-0.0748 2.770172,-0.18585 3.071949,-0.24688 0.47342,-0.0958 0.601587,0.0693 0.934298,1.20434 0.212084,0.72348 0.362278,1.3376 0.3341,1.36449 -0.107233,0.1024 -3.314569,1.4992 -9.890944,4.30733 -7.053741,3.01197 -12.236546,5.50379 -12.236546,5.88371 0,0.12032 0.107696,0.28568 0.239488,0.36711 0.216321,0.1337 15.133354,-4.73688 20.892108,-6.82145 l 2.335745,-0.84511 0.735218,1.45714 0.73571,1.45712 -3.954013,2.73687 c -7.010676,4.85258 -8.693719,6.19837 -8.275634,6.61646 0.207766,0.20776 4.483672,-1.88139 9.71946,-4.74886 1.997367,-1.09389 3.700393,-1.98726 3.784498,-1.9844 0.08411,0.003 0.536355,0.59104 1.005259,1.30783 0.634057,0.96926 0.789561,1.40464 0.606604,1.69858 -0.135303,0.21737 -2.959898,2.89299 -6.276946,5.94581 -10.37914,9.55239 -14.688381,14.00265 -13.55915,14.00265 0.336164,0 13.368017,-10.26561 19.815891,-15.60959 1.233846,-1.02261 2.277969,-1.8174 2.320469,-1.76609 0.0425,0.0513 0.723551,0.86174 1.513308,1.80158 0.789756,0.93982 1.385062,1.79134 1.322603,1.89225 -0.06246,0.10091 -2.058108,2.56803 -4.434467,5.4821 -4.771586,5.85127 -5.718675,7.1225 -5.482595,7.35858 0.312153,0.31215 2.13121,-1.22747 7.052078,-5.96897 l 4.991793,-4.80995 1.37878,1.19054 c 0.7584,0.65475 1.378779,1.23833 1.378779,1.29697 0,0.0585 -0.831965,1.42808 -1.848885,3.04288 -3.176853,5.04465 -9.00001,15.10148 -9.00001,15.54355 0,0.0733 0.157465,0.13354 0.349868,0.13354 0.192404,0 0.972407,-0.76636 1.733084,-1.70302 1.299421,-1.60005 7.705246,-10.18295 9.462232,-12.67808 0.439713,-0.62444 1.014826,-1.40694 1.278254,-1.73899 l 0.478976,-0.60414 1.171814,0.80667 c 0.98373,0.67683 1.131908,0.881 0.922472,1.27234 -1.54721,2.89099 -4.665367,14.37589 -4.065872,14.97538 0.305119,0.30512 0.566637,-0.24846 3.85595,-8.15146 1.241742,-2.98344 2.348527,-5.51756 2.459432,-5.63141 0.213221,-0.21888 2.790082,1.24429 2.790082,1.58427 0,0.10942 -0.176958,0.6957 -0.393233,1.30289 -0.688265,1.93232 -1.164579,4.31457 -0.913108,4.56604 0.297937,0.29794 0.960478,-0.62818 2.16081,-3.02021 0.504838,-1.00605 0.993595,-1.82917 1.086073,-1.82917 0.485539,0 1.843766,0.64238 1.841,0.87072 -0.0018,0.14559 -0.236355,1.0026 -0.520861,1.90458 -1.494023,4.7365 -2.467529,10.15859 -1.743432,9.71108 0.44697,-0.27625 2.051104,-3.85278 4.55224,-10.15162 l 0.224704,-0.56669 1.331474,0.5248 c 0.732173,0.28856 1.361971,0.55533 1.399475,0.5928 0.0375,0.0375 -0.152842,1.47546 -0.422798,3.19564 -0.269955,1.72019 -0.563928,3.87991 -0.652925,4.79961 l -0.16163,1.67247 -2.69547,0.28976 c -5.724215,0.61538 -10.474458,0.77338 -23.384063,0.78006 -13.176526,0.007 -18.037017,0.23218 -21.329691,0.99096 -1.646023,0.37932 -1.711849,0.36099 -3.760352,-1.04517 -4.268467,-2.93003 -8.092171,-7.44741 -9.576556,-11.31358 -1.450808,-3.77872 -2.547638,-9.41594 -2.547638,-13.09299 0,-1.26894 0.199144,-2.15808 0.876644,-3.91705 0.482071,-1.25159 1.574084,-4.09218 2.426908,-6.31243 4.148228,-10.7995 12.093134,-27.39176 13.119103,-27.42037 z m 142.46666,5.45797 c -0.24177,-0.006 -0.79469,0.6274 -1.58033,1.83902 -1.24824,1.92505 -8.14539,11.61575 -12.25773,17.22243 -12.45144,16.97599 -21.3143,25.7546 -33.15625,32.84087 -7.63418,4.56831 -13.45003,7.04084 -23.25643,9.88651 -7.71304,2.2382 -11.65895,3.06299 -20.643748,4.3162 -9.143504,1.27534 -18.702599,1.75783 -29.661501,1.49754 -7.075571,-0.16804 -9.571136,-0.0565 -9.571136,0.42675 0,0.1337 0.284994,0.35151 0.633215,0.4839 0.955176,0.36316 7.79012,1.1863 12.486381,1.50395 7.608217,0.5146 10.507988,0.55857 17.030244,0.25821 6.413558,-0.29535 11.155045,-0.79122 17.069675,-1.78483 13.07632,-2.19672 26.32402,-6.77821 36.03502,-12.46273 12.73462,-7.45445 22.16399,-16.50489 32.38555,-31.08315 3.29183,-4.69491 7.84031,-11.62468 10.0713,-15.34447 1.73181,-2.88748 4.40148,-8.22642 4.52859,-9.05667 0.0554,-0.36212 0.0138,-0.54067 -0.11285,-0.54353 z M 21.622862,197.26953 c 0.04593,-0.003 0.07716,0.0534 0.09806,0.16015 0.06778,0.34603 0.3492,1.77486 0.625329,3.17494 0.618348,3.13524 1.975556,6.36068 3.868762,9.19515 1.550053,2.32072 5.052971,5.87498 6.740153,6.83871 0.572895,0.32724 1.042645,0.66093 1.043694,0.74112 10e-4,0.0802 -0.99146,0.52132 -2.205653,0.98013 -2.45329,0.92703 -5.187563,2.25528 -9.902771,4.81045 -1.734562,0.93996 -3.770451,1.89019 -4.524152,2.11203 -1.492477,0.43928 -3.465441,0.49188 -4.731115,0.12566 -1.125891,-0.32577 -2.286793,-1.57587 -2.624018,-2.82605 -0.6742796,-2.49974 0.30025,-5.01851 4.167384,-10.77252 2.680392,-3.98822 4.24827,-7.00077 6.170999,-11.85662 0.755953,-1.90917 1.109294,-2.67295 1.273326,-2.68315 z m 70.471997,7.73802 c 0.239077,9.1e-4 1.067781,0.15387 2.001645,0.37402 l 1.940543,0.45778 -0.14931,0.74705 c -0.253994,1.26998 -0.216042,4.78883 0.05273,4.87894 0.400807,0.13434 1.301191,-1.45555 1.937587,-3.42231 l 0.585419,-1.80995 1.639947,0.15916 c 2.0599,0.20001 2.52257,0.32878 2.52448,0.70319 0.003,0.60609 0.54494,2.23282 0.69431,2.08344 0.085,-0.085 0.21876,-0.6349 0.29715,-1.22207 l 0.1424,-1.06735 4.28911,-0.15966 c 3.65692,-0.13609 8.58207,-0.76524 10.63158,-1.35808 1.28113,-0.37059 -2.20957,1.09638 -5.20714,2.1884 -6.03366,2.19808 -14.641793,4.46194 -20.940889,5.50724 -0.901972,0.14968 -1.952171,0.33408 -2.333775,0.40999 -0.381604,0.0758 -0.693824,0.0298 -0.693824,-0.1025 0,-0.13235 0.178562,-0.73758 0.396682,-1.34478 0.21812,-0.6072 0.757412,-2.41288 1.198425,-4.01265 0.441013,-1.59977 0.858509,-2.95027 0.927891,-3.001 0.0087,-0.006 0.03089,-0.009 0.06504,-0.009 z m -73.106363,3.89882 c -0.260913,0.006 -0.376923,0.3311 -0.372537,0.96238 0.01224,1.77717 1.748531,4.20181 4.649316,6.49279 1.215409,0.95986 1.615213,1.15342 1.980456,0.95795 0.2517,-0.13471 0.516293,-0.39739 0.587878,-0.58394 0.225379,-0.58734 -0.591781,-1.79 -1.888307,-2.77875 -0.687535,-0.52432 -1.848691,-1.7407 -2.580161,-2.70285 -1.209415,-1.59083 -1.969619,-2.35712 -2.376645,-2.34758 z m 35.894098,25.7612 c -4.185283,-0.0745 -7.528402,0.17942 -11.505763,0.73572 -6.455642,0.90294 -16.692695,4.34594 -16.692695,5.61416 0,0.45869 0.20038,0.81554 0.457786,0.81554 0.06664,0 1.438191,-0.39132 3.048295,-0.86926 4.907795,-1.45683 7.516635,-2.00033 12.130107,-2.52841 7.870272,-0.90088 12.787504,-0.75661 25.236398,0.74014 10.764605,1.29427 13.029649,1.47713 18.544043,1.50049 3.804143,0.0161 5.806637,-0.0968 8.136673,-0.45975 1.699866,-0.26481 3.090673,-0.56243 3.090673,-0.6613 0,-0.0989 -0.709583,-0.25714 -1.576869,-0.35135 -2.40879,-0.26172 -4.720778,-0.71439 -4.604971,-0.90178 0.05709,-0.0924 0.731348,-0.30826 1.498523,-0.47995 0.767178,-0.17168 1.471105,-0.43619 1.564555,-0.58739 0.113247,-0.1832 -0.02972,-0.22224 -0.429205,-0.11777 -1.28835,0.33691 -14.00784,-0.35423 -22.338891,-1.2137 -7.345666,-0.75781 -12.373377,-1.16091 -16.558659,-1.23539 z" /></g></svg>
